<?xml version="1.0" standalone="no"?>
<!DOCTYPE svg PUBLIC "-//W3C//DTD SVG 20010904//EN"
 "http://www.w3.org/TR/2001/REC-SVG-20010904/DTD/svg10.dtd">
<svg version="1.0" xmlns="http://www.w3.org/2000/svg"
 width="1250.000000pt" height="1250.000000pt" viewBox="0 0 1250.000000 1250.000000"
 preserveAspectRatio="xMidYMid meet">
<metadata>
Created by potrace 1.14, written by Peter Selinger 2001-2017
</metadata>
<g transform="translate(0.000000,1250.000000) scale(0.100000,-0.100000)"
fill="#000000" stroke="none">
<path d="M6058 9884 l-3 -1546 -110 -28 c-518 -131 -869 -483 -936 -939 -16
-115 -7 -303 21 -411 45 -177 131 -321 269 -453 166 -159 373 -266 659 -342
l102 -28 0 -728 c0 -632 -2 -729 -15 -729 -8 0 -58 16 -111 34 -261 94 -443
272 -509 499 l-16 57 -264 0 -264 0 5 -32 c50 -292 126 -449 309 -634 159
-162 311 -254 536 -328 82 -27 292 -76 325 -76 2 0 4 -320 4 -710 l0 -710
-897 2 -898 3 0 3480 0 3480 723 3 722 2 0 195 0 195 -940 0 -940 0 0 -3875 0
-3875 1115 0 1115 0 0 -665 0 -665 245 0 245 0 0 1564 0 1564 63 7 c238 25
441 82 629 175 144 72 212 121 328 239 118 120 183 219 236 359 55 146 69 235
68 422 -1 208 -20 296 -101 459 -50 101 -67 125 -152 212 -197 200 -442 319
-881 429 -47 12 -109 28 -137 36 l-53 15 0 685 c0 645 1 684 18 684 9 0 58 -9
107 -19 306 -63 525 -241 605 -491 l23 -70 264 0 264 0 -7 48 c-11 75 -52 209
-89 289 -128 277 -393 499 -730 611 -107 35 -225 61 -355 76 l-95 11 -3 663
c-2 626 -1 662 15 662 10 0 72 -14 138 -30 750 -190 1341 -654 1718 -1350 141
-261 259 -608 316 -930 48 -268 53 -356 58 -982 7 -782 -8 -1013 -83 -1373
-95 -449 -312 -908 -592 -1255 -273 -337 -684 -640 -1074 -791 l-88 -34 0
-207 c0 -115 4 -208 8 -208 4 0 53 15 108 34 326 110 675 301 944 516 134 108
352 325 458 458 331 414 564 927 670 1472 73 371 86 600 79 1385 -5 601 -10
700 -47 948 -92 604 -348 1208 -701 1647 -109 136 -326 353 -459 460 -393 314
-917 551 -1394 631 l-76 13 0 668 0 668 -245 0 -245 0 -2 -1546z m2 -2614 c0
-330 -2 -600 -5 -600 -3 0 -33 10 -67 21 -242 82 -409 245 -449 436 -26 130 4
306 74 425 56 96 172 200 287 258 42 21 136 58 153 59 4 1 7 -269 7 -599z
m583 -1280 c284 -71 451 -152 563 -273 100 -107 139 -214 138 -382 -1 -190
-52 -315 -183 -445 -92 -92 -174 -142 -301 -185 -74 -25 -200 -52 -265 -57
l-40 -3 -3 683 c-1 375 1 682 4 682 3 0 42 -9 87 -20z"/>
</g>
</svg>
